<?xml version="1.0" encoding="UTF-8" standalone="no"?><!-- Generator: Gravit.io --><svg xmlns="http://www.w3.org/2000/svg" xmlns:xlink="http://www.w3.org/1999/xlink" style="isolation:isolate" viewBox="102.925 -12.211 613.18 612" width="613.18pt" height="612pt"><g><path d="M 165.497 -12.211 L 653.533 -12.211 C 688.068 -12.211 716.105 15.826 716.105 50.36 L 716.105 537.217 C 716.105 571.751 688.068 599.789 653.533 599.789 L 165.497 599.789 C 130.962 599.789 102.925 571.751 102.925 537.217 L 102.925 50.36 C 102.925 15.826 130.962 -12.211 165.497 -12.211 Z" style="stroke:none;fill:#364999;stroke-miterlimit:10;"/><path d=" M 562.79 278.11 L 562.79 278.026 C 561.047 260.796 556.389 243.988 549.016 228.319 C 548.819 227.875 548.621 227.408 548.417 226.971 C 548.369 226.863 548.303 226.761 548.256 226.66 C 522.522 173.469 468.631 139.685 409.542 139.702 C 324.5 139.702 255.497 208.675 255.479 293.771 C 255.449 339.335 275.629 382.567 310.576 411.805 L 310.576 293.411 C 310.77 241.032 352.285 198.149 404.631 196.259 C 456.976 194.369 501.476 234.145 505.447 286.374 L 432.982 286.374 C 426.846 275.74 414.332 270.554 402.472 273.73 C 390.613 276.906 382.366 287.653 382.366 299.93 C 382.366 312.208 390.613 322.954 402.472 326.13 C 414.332 329.306 426.846 324.12 432.982 313.486 L 503.651 313.486 C 494.38 357.755 455.141 391.005 408.159 391.005 C 396.674 391.01 385.279 388.982 374.501 385.017 L 374.501 443.779 C 374.992 443.911 375.489 444.031 375.98 444.144 C 377.747 444.534 379.532 444.887 381.335 445.222 C 382.305 445.402 383.269 445.582 384.233 445.749 C 386.03 446.025 387.856 446.294 389.671 446.528 C 390.641 446.642 391.605 446.792 392.6 446.899 C 394.534 447.115 396.474 447.265 398.445 447.408 C 399.295 447.468 400.163 447.552 401.008 447.606 C 403.841 447.75 406.673 447.852 409.524 447.852 C 494.619 447.852 563.593 378.866 563.593 293.783 C 563.589 288.548 563.321 283.317 562.79 278.11 L 562.79 278.11 Z " fill="rgb(255,255,255)"/></g></svg>